<svg width="50" height="52" viewBox="0 0 50 52" fill="none" xmlns="http://www.w3.org/2000/svg">
<path d="M15.9479 28.385C15.1782 29.0672 15.1037 27.0043 14.9213 26.682C14.7552 26.3887 14.5828 26.1093 14.39 25.8339C14.1595 25.4949 14.0493 25.1146 14.0593 24.6934C14.0338 23.9614 14.5165 23.4287 15.4531 23.5284C15.4849 23.5737 15.5228 23.6048 15.5632 23.6276C15.4692 25.2637 15.4735 26.8964 15.9479 28.385V28.385ZM33.3131 23.6276C33.3532 23.6048 33.3913 23.5737 33.4232 23.5284C34.3597 23.4287 34.8243 23.8168 34.8168 24.6934C34.8266 25.1146 34.7166 25.4949 34.4863 25.8339C34.2933 26.1093 34.1208 26.3887 33.9549 26.682C33.7725 27.0043 33.6979 29.0672 32.9283 28.385C33.4027 26.8964 33.407 25.2637 33.3131 23.6276V23.6276ZM40.5305 44.638C40.5148 44.6053 40.5011 44.5718 40.4854 44.5391C39.8259 43.1984 39.3574 41.5461 38.1492 40.6237C37.6485 40.2417 36.6432 40.16 36.0646 39.9925C34.9803 39.6788 34.0591 39.0636 33.0368 38.6032C31.5492 37.9325 29.9988 37.044 28.8008 35.89C28.7886 35.6187 28.7835 35.3475 28.7863 35.0758C30.382 35.2609 32.5381 35.9696 33.6869 37.111C34.1196 37.5411 34.8251 38.4456 35.4787 38.4623C35.6457 38.4664 35.795 38.3112 35.7911 38.1375C35.7463 36.2213 35.9974 34.5056 36.2336 32.6138C36.5308 30.2363 37.2936 27.8429 37.3121 25.4442C37.3424 21.5868 37.3215 17.4585 35.4869 13.976C34.5448 12.1876 33.3764 10.6541 31.8294 9.39101C30.6138 8.39876 29.375 7.82686 27.9975 7.15937C26.9411 6.64752 25.6759 6.50741 24.4116 6.66141C23.1472 6.50741 21.8821 6.64752 20.8255 7.15937C19.4481 7.82686 18.2092 8.39876 16.9937 9.39101C15.4468 10.6541 14.2782 12.1876 13.3362 13.976C11.5017 17.4585 11.4808 21.5868 11.5109 25.4442C11.5297 27.8429 12.2925 30.2363 12.5894 32.6138C12.8257 34.5056 13.0767 36.2213 13.0322 38.1375C13.0281 38.3112 13.1773 38.4664 13.3444 38.4623C13.998 38.4456 14.7033 37.5411 15.1361 37.111C16.2978 35.957 18.4892 35.2445 20.0895 35.0693C20.0926 35.3299 20.0886 35.5901 20.0774 35.8499C20.0634 35.8602 20.0487 35.8638 20.0352 35.8769C18.835 37.0375 17.2771 37.9296 15.7837 38.6032C14.7616 39.0636 13.8402 39.6788 12.756 39.9925C12.1774 40.16 11.1721 40.2417 10.6713 40.6237C9.66003 41.3953 9.16663 42.6772 8.64603 43.861C4.09481 39.3606 1.24906 33.0133 1.24906 25.9847C1.24906 12.3726 11.9038 1.29822 25.0003 1.29822C38.0962 1.29822 48.751 12.3726 48.751 25.9847C48.751 33.4284 45.56 40.1081 40.5305 44.638V44.638ZM20.5653 38.0632C20.6892 36.7613 20.7898 35.448 20.645 34.1457C21.6915 34.8536 22.8485 35.4096 24.1337 35.7977C24.153 35.8209 24.7232 35.8209 24.7421 35.7977C26.0277 35.4096 27.1847 34.8536 28.2313 34.1457C28.0863 35.448 28.1869 36.7613 28.3107 38.0632C28.5151 40.2127 26.3158 41.4836 24.4379 41.5967C22.5604 41.4836 20.3608 40.2127 20.5653 38.0632ZM19.7298 23.1191C20.0651 22.7583 20.3086 22.358 20.5159 21.9405C20.4615 22.3041 20.4471 22.6632 20.5143 23.0108C20.5412 23.1497 20.6843 23.251 20.8154 23.249C21.7245 23.2367 22.6532 22.9936 23.5544 22.8784C24.9205 22.7036 26.361 22.7138 27.7361 22.744C28.2058 22.7543 29.3408 23.0807 29.6745 22.608C29.9823 22.173 30.1819 21.6484 30.3725 21.119C30.3454 21.6697 30.3088 22.2208 30.3116 22.7665C30.3128 22.9442 30.4531 23.0892 30.6241 23.0909C31.2674 23.097 31.967 23.0545 32.6182 23.1207C32.6371 23.501 32.6532 23.8809 32.6607 24.2596C32.6929 25.9283 32.7853 27.838 31.8825 29.2809C30.8048 31.0035 29.8388 32.2707 28.161 33.4279C26.9524 34.2617 25.815 34.8189 24.4379 35.2184C23.0608 34.8189 21.9237 34.2617 20.7153 33.4279C19.0371 32.2707 18.0715 31.0035 16.9937 29.2809C16.0908 27.838 16.1833 25.9283 16.2153 24.2596C16.2227 23.8825 16.2388 23.5043 16.2577 23.126C17.0078 23.1444 18.0998 23.2755 18.5191 22.6648C18.8962 22.1158 19.1245 21.4507 19.338 20.7743C19.2525 21.4859 19.1788 22.1954 19.1968 22.8895C19.204 23.1656 19.5355 23.3282 19.7298 23.1191V23.1191ZM25.0003 2.32628e-06C11.2149 2.32628e-06 0 11.6565 0 25.9847C0 40.3128 11.2149 51.9693 25.0003 51.9693C38.7851 51.9693 50 40.3128 50 25.9847C50 11.6565 38.7851 2.32628e-06 25.0003 2.32628e-06Z" fill="#4D4D4D"/>
</svg>
